<mxfile host="app.diagrams.net" modified="2023-12-28T21:00:51.054Z" agent="Mozilla/5.0 (Windows NT 10.0; Win64; x64) AppleWebKit/537.36 (KHTML, like Gecko) Chrome/120.0.0.0 Safari/537.36" etag="oihvDrIu6k2JxpAFGj7M" version="22.1.15" type="github">
  <diagram name="Page-1" id="eA1YJ7FuqXHG_g_RmvAF">
    <mxGraphModel dx="1050" dy="557" grid="1" gridSize="10" guides="1" tooltips="1" connect="1" arrows="1" fold="1" page="1" pageScale="1" pageWidth="850" pageHeight="1100" math="0" shadow="0">
      <root>
        <mxCell id="0" />
        <mxCell id="1" parent="0" />
        <mxCell id="M-sBoob2XTK08AfqyI5y-5" value="" style="edgeStyle=orthogonalEdgeStyle;rounded=0;orthogonalLoop=1;jettySize=auto;html=1;" edge="1" parent="1" source="M-sBoob2XTK08AfqyI5y-1" target="M-sBoob2XTK08AfqyI5y-3">
          <mxGeometry relative="1" as="geometry" />
        </mxCell>
        <mxCell id="M-sBoob2XTK08AfqyI5y-1" value="" style="ellipse;html=1;shape=startState;fillColor=#000000;strokeColor=#ff0000;" vertex="1" parent="1">
          <mxGeometry x="410" y="10" width="30" height="30" as="geometry" />
        </mxCell>
        <mxCell id="M-sBoob2XTK08AfqyI5y-8" value="" style="edgeStyle=orthogonalEdgeStyle;rounded=0;orthogonalLoop=1;jettySize=auto;html=1;" edge="1" parent="1" source="M-sBoob2XTK08AfqyI5y-3" target="M-sBoob2XTK08AfqyI5y-6">
          <mxGeometry relative="1" as="geometry" />
        </mxCell>
        <mxCell id="M-sBoob2XTK08AfqyI5y-3" value="Workflow Automation System identify tasks requiring automation" style="rounded=1;whiteSpace=wrap;html=1;arcSize=40;fontColor=#000000;fillColor=#ffffc0;strokeColor=#ff0000;" vertex="1" parent="1">
          <mxGeometry x="358" y="80" width="135" height="60" as="geometry" />
        </mxCell>
        <mxCell id="M-sBoob2XTK08AfqyI5y-11" value="" style="edgeStyle=orthogonalEdgeStyle;rounded=0;orthogonalLoop=1;jettySize=auto;html=1;" edge="1" parent="1" source="M-sBoob2XTK08AfqyI5y-6" target="M-sBoob2XTK08AfqyI5y-9">
          <mxGeometry relative="1" as="geometry" />
        </mxCell>
        <mxCell id="M-sBoob2XTK08AfqyI5y-6" value="Automate Tasks" style="rounded=1;whiteSpace=wrap;html=1;arcSize=40;fontColor=#000000;fillColor=#ffffc0;strokeColor=#ff0000;" vertex="1" parent="1">
          <mxGeometry x="366" y="190" width="120" height="40" as="geometry" />
        </mxCell>
        <mxCell id="M-sBoob2XTK08AfqyI5y-17" value="" style="edgeStyle=orthogonalEdgeStyle;rounded=0;orthogonalLoop=1;jettySize=auto;html=1;" edge="1" parent="1" source="M-sBoob2XTK08AfqyI5y-9" target="M-sBoob2XTK08AfqyI5y-12">
          <mxGeometry relative="1" as="geometry" />
        </mxCell>
        <mxCell id="M-sBoob2XTK08AfqyI5y-9" value="Execute tasks based on predefined rules" style="rounded=1;whiteSpace=wrap;html=1;arcSize=40;fontColor=#000000;fillColor=#ffffc0;strokeColor=#ff0000;" vertex="1" parent="1">
          <mxGeometry x="363.5" y="260" width="125" height="50" as="geometry" />
        </mxCell>
        <mxCell id="M-sBoob2XTK08AfqyI5y-16" value="" style="edgeStyle=orthogonalEdgeStyle;rounded=0;orthogonalLoop=1;jettySize=auto;html=1;" edge="1" parent="1" source="M-sBoob2XTK08AfqyI5y-12" target="M-sBoob2XTK08AfqyI5y-15">
          <mxGeometry relative="1" as="geometry" />
        </mxCell>
        <mxCell id="M-sBoob2XTK08AfqyI5y-22" style="edgeStyle=orthogonalEdgeStyle;rounded=0;orthogonalLoop=1;jettySize=auto;html=1;exitX=1;exitY=0.5;exitDx=0;exitDy=0;entryX=0.5;entryY=1;entryDx=0;entryDy=0;" edge="1" parent="1" source="M-sBoob2XTK08AfqyI5y-12" target="M-sBoob2XTK08AfqyI5y-18">
          <mxGeometry relative="1" as="geometry" />
        </mxCell>
        <mxCell id="M-sBoob2XTK08AfqyI5y-25" value="[Yes]" style="edgeLabel;html=1;align=center;verticalAlign=middle;resizable=0;points=[];" vertex="1" connectable="0" parent="M-sBoob2XTK08AfqyI5y-22">
          <mxGeometry x="-0.3826" y="-2" relative="1" as="geometry">
            <mxPoint as="offset" />
          </mxGeometry>
        </mxCell>
        <mxCell id="M-sBoob2XTK08AfqyI5y-24" style="edgeStyle=orthogonalEdgeStyle;rounded=0;orthogonalLoop=1;jettySize=auto;html=1;exitX=0.5;exitY=1;exitDx=0;exitDy=0;entryX=0.5;entryY=0;entryDx=0;entryDy=0;" edge="1" parent="1" source="M-sBoob2XTK08AfqyI5y-12" target="M-sBoob2XTK08AfqyI5y-20">
          <mxGeometry relative="1" as="geometry" />
        </mxCell>
        <mxCell id="M-sBoob2XTK08AfqyI5y-29" value="[No]" style="edgeLabel;html=1;align=center;verticalAlign=middle;resizable=0;points=[];" vertex="1" connectable="0" parent="M-sBoob2XTK08AfqyI5y-24">
          <mxGeometry x="0.1467" relative="1" as="geometry">
            <mxPoint x="-1" y="-14" as="offset" />
          </mxGeometry>
        </mxCell>
        <mxCell id="M-sBoob2XTK08AfqyI5y-12" value="" style="rhombus;whiteSpace=wrap;html=1;fontColor=#000000;fillColor=#ffffc0;strokeColor=#ff0000;" vertex="1" parent="1">
          <mxGeometry x="386" y="340" width="80" height="40" as="geometry" />
        </mxCell>
        <mxCell id="M-sBoob2XTK08AfqyI5y-15" value="Error in automated process?" style="shape=note;whiteSpace=wrap;html=1;backgroundOutline=1;darkOpacity=0.05;size=14;" vertex="1" parent="1">
          <mxGeometry x="210" y="335" width="110" height="50" as="geometry" />
        </mxCell>
        <mxCell id="M-sBoob2XTK08AfqyI5y-23" style="edgeStyle=orthogonalEdgeStyle;rounded=0;orthogonalLoop=1;jettySize=auto;html=1;exitX=0.5;exitY=0;exitDx=0;exitDy=0;entryX=1;entryY=0.5;entryDx=0;entryDy=0;" edge="1" parent="1" source="M-sBoob2XTK08AfqyI5y-18" target="M-sBoob2XTK08AfqyI5y-6">
          <mxGeometry relative="1" as="geometry" />
        </mxCell>
        <mxCell id="M-sBoob2XTK08AfqyI5y-18" value="Flag for manual intervention" style="rounded=1;whiteSpace=wrap;html=1;arcSize=40;fontColor=#000000;fillColor=#ffffc0;strokeColor=#ff0000;" vertex="1" parent="1">
          <mxGeometry x="540" y="270" width="120" height="40" as="geometry" />
        </mxCell>
        <mxCell id="M-sBoob2XTK08AfqyI5y-31" value="" style="edgeStyle=orthogonalEdgeStyle;rounded=0;orthogonalLoop=1;jettySize=auto;html=1;" edge="1" parent="1" source="M-sBoob2XTK08AfqyI5y-20" target="M-sBoob2XTK08AfqyI5y-30">
          <mxGeometry relative="1" as="geometry" />
        </mxCell>
        <mxCell id="M-sBoob2XTK08AfqyI5y-20" value="Track and Log Actions" style="rounded=1;whiteSpace=wrap;html=1;arcSize=40;fontColor=#000000;fillColor=#ffffc0;strokeColor=#ff0000;" vertex="1" parent="1">
          <mxGeometry x="366" y="440" width="120" height="40" as="geometry" />
        </mxCell>
        <mxCell id="M-sBoob2XTK08AfqyI5y-30" value="" style="ellipse;html=1;shape=endState;fillColor=#000000;strokeColor=#ff0000;" vertex="1" parent="1">
          <mxGeometry x="411" y="520" width="30" height="30" as="geometry" />
        </mxCell>
      </root>
    </mxGraphModel>
  </diagram>
</mxfile>
